<?xml version="1.0" encoding="utf-8"?>
<!-- Generator: Adobe Illustrator 24.3.0, SVG Export Plug-In . SVG Version: 6.00 Build 0)  -->
<svg version="1.1" id="Layer_1" xmlns="http://www.w3.org/2000/svg" xmlns:xlink="http://www.w3.org/1999/xlink" x="0px" y="0px"
	 viewBox="0 0 512 512" style="enable-background:new 0 0 512 512;" xml:space="preserve">
<style type="text/css">
	.st0{fill:#FFFFFF;}
	.st1{display:none;}
	.st2{fill:#198754;}
	.st3{font-family:'Poppins-Bold';}
	.st4{font-size:179.7946px;}
</style>
<path class="st0" d="M490,502H22c-6.6,0-12-5.4-12-12V22c0-6.6,5.4-12,12-12h468c6.6,0,12,5.4,12,12v468
	C502,496.6,496.6,502,490,502z"/>
<polygon points="31,228 209,92 486,278 208,149 "/>
<polygon class="st1" points="57.72,228.54 57.72,465.96 429.24,465.96 429.24,264.36 421.69,261.03 421.69,458.76 63.48,458.76 
	63.48,225.48 "/>
<polygon class="st1" points="103.44,357.24 103.44,371.64 402.6,371.64 402.6,357 "/>
<polygon class="st1" points="402.6,301.08 402.6,371.64 103.44,371.64 103.44,301.08 119.64,301.08 119.64,357 388.2,357 
	388.06,301.08 "/>
<polygon points="103.44,206.4 103.44,371.64 402.6,371.64 402.6,246.36 387.91,238.44 388.2,357 119.64,357 119.64,199.92 "/>
<text transform="matrix(1 0 0 1 167.1593 343.6841)" class="st2 st3 st4">M</text>
</svg>
